<?xml version="1.0" encoding="UTF-8" standalone="no"?>
<svg
   xmlns:dc="http://purl.org/dc/elements/1.1/"
   xmlns:cc="http://creativecommons.org/ns#"
   xmlns:rdf="http://www.w3.org/1999/02/22-rdf-syntax-ns#"
   xmlns:svg="http://www.w3.org/2000/svg"
   xmlns="http://www.w3.org/2000/svg"
   xmlns:sodipodi="http://sodipodi.sourceforge.net/DTD/sodipodi-0.dtd"
   xmlns:inkscape="http://www.inkscape.org/namespaces/inkscape"
   inkscape:version="1.0 (4035a4f, 2020-05-01)"
   sodipodi:docname="culture.svg"
   id="svg42"
   xml:space="preserve"
   enable-background="new 0 0 100 100"
   viewBox="0 0 64.151291 44.291"
   y="0px"
   x="0px"
   version="1.1"><metadata
     id="metadata48"><rdf:RDF><cc:Work
         rdf:about=""><dc:format>image/svg+xml</dc:format><dc:type
           rdf:resource="http://purl.org/dc/dcmitype/StillImage" /></cc:Work></rdf:RDF></metadata><defs
     id="defs46" /><sodipodi:namedview
     inkscape:current-layer="svg42"
     inkscape:window-maximized="0"
     inkscape:window-y="23"
     inkscape:window-x="0"
     inkscape:cy="22.48"
     inkscape:cx="31.296289"
     inkscape:zoom="6.69"
     showgrid="false"
     id="namedview44"
     inkscape:window-height="855"
     inkscape:window-width="1440"
     inkscape:pageshadow="2"
     inkscape:pageopacity="0"
     guidetolerance="10"
     gridtolerance="10"
     objecttolerance="10"
     borderopacity="1"
     bordercolor="#666666"
     pagecolor="#ffffff" /><g
     transform="translate(-18.703711,-27.52)"
     id="g40"><path
       id="path10"
       d="m 27.737,33.481 c 0,-1.547 -1.258,-2.805 -2.805,-2.805 -1.546,0 -2.804,1.258 -2.804,2.805 0,1.547 1.258,2.805 2.804,2.805 1.547,0 2.805,-1.258 2.805,-2.805 z m -2.805,1.005 c -0.554,0 -1.004,-0.451 -1.004,-1.005 0,-0.554 0.451,-1.005 1.004,-1.005 0.554,0 1.005,0.451 1.005,1.005 0,0.554 -0.451,1.005 -1.005,1.005 z"
       fill="#000000" /><path
       id="path12"
       d="m 32.889,36.286 c 1.547,0 2.805,-1.258 2.805,-2.805 0,-1.547 -1.258,-2.805 -2.805,-2.805 -1.546,0 -2.804,1.258 -2.804,2.805 0,1.547 1.257,2.805 2.804,2.805 z m 0,-3.81 c 0.554,0 1.005,0.451 1.005,1.005 0,0.554 -0.451,1.005 -1.005,1.005 -0.554,0 -1.004,-0.451 -1.004,-1.005 0,-0.554 0.45,-1.005 1.004,-1.005 z"
       fill="#000000" /><path
       id="path14"
       d="m 38.923,39.865 c -0.596,0 -1.146,0.19 -1.602,0.508 -0.726,0.508 -1.204,1.347 -1.204,2.297 0,0.038 0.01,0.073 0.011,0.111 0.06,1.494 1.285,2.693 2.794,2.693 1.546,0 2.804,-1.258 2.804,-2.804 10e-4,-1.546 -1.257,-2.805 -2.803,-2.805 z m 0,3.81 c -0.554,0 -1.005,-0.451 -1.005,-1.004 0,-0.554 0.451,-1.005 1.005,-1.005 0.554,0 1.004,0.451 1.004,1.005 0,0.553 -0.45,1.004 -1.004,1.004 z"
       fill="#000000" /><path
       id="path16"
       d="m 46.88,45.475 c 1.546,0 2.804,-1.258 2.804,-2.804 0,-1.547 -1.258,-2.805 -2.804,-2.805 -1.547,0 -2.805,1.258 -2.805,2.805 0,1.546 1.258,2.804 2.805,2.804 z m 0,-3.81 c 0.554,0 1.004,0.451 1.004,1.005 0,0.554 -0.451,1.004 -1.004,1.004 -0.554,0 -1.005,-0.451 -1.005,-1.004 0,-0.554 0.451,-1.005 1.005,-1.005 z"
       fill="#000000" /><path
       id="path18"
       d="m 29.017,39.225 c -2.125,0 -3.315,1.628 -3.365,1.697 -0.289,0.404 -0.196,0.966 0.208,1.256 0.405,0.289 0.967,0.196 1.256,-0.208 0.006,-0.009 0.71,-0.945 1.901,-0.945 1.06,0 1.583,0.826 1.613,0.876 0.167,0.286 0.468,0.445 0.777,0.445 0.151,0 0.305,-0.039 0.446,-0.12 0.431,-0.247 0.581,-0.797 0.333,-1.228 -0.04,-0.072 -1.04,-1.773 -3.169,-1.773 z"
       fill="#000000" /><path
       id="path20"
       d="m 41.166,49.172 c -0.249,-0.425 -0.793,-0.571 -1.224,-0.326 -0.431,0.247 -0.581,0.797 -0.334,1.229 0.042,0.072 1.041,1.775 3.171,1.775 2.125,0 3.316,-1.629 3.366,-1.698 0.289,-0.404 0.196,-0.966 -0.208,-1.256 -0.405,-0.289 -0.967,-0.197 -1.256,0.208 -0.007,0.009 -0.71,0.946 -1.902,0.946 -1.061,-10e-4 -1.584,-0.83 -1.613,-0.878 z"
       fill="#000000" /><path
       id="path22"
       d="m 69.33,35.798 c 0.211,0 0.422,-0.073 0.593,-0.223 1.513,-1.325 3.194,-1.195 3.352,-1.185 2.452,0 6.302,0.317 6.341,0.32 0.488,0.039 0.931,-0.327 0.971,-0.823 0.042,-0.495 -0.327,-0.93 -0.822,-0.971 -0.159,-0.013 -3.906,-0.322 -6.345,-0.322 -0.018,0 -0.036,0 -0.054,0 -0.101,-0.009 -2.51,-0.23 -4.628,1.625 -0.374,0.328 -0.412,0.896 -0.084,1.27 0.177,0.205 0.426,0.309 0.676,0.309 z"
       fill="#000000" /><path
       id="path24"
       d="m 69.33,40.216 c 0.211,0 0.422,-0.073 0.593,-0.223 1.513,-1.325 3.194,-1.196 3.352,-1.185 2.452,0 6.302,0.317 6.341,0.32 0.488,0.034 0.931,-0.327 0.971,-0.823 0.042,-0.495 -0.327,-0.93 -0.822,-0.971 -0.16,-0.013 -3.919,-0.309 -6.398,-0.322 -0.101,-0.01 -2.51,-0.23 -4.628,1.625 -0.374,0.328 -0.412,0.896 -0.084,1.27 0.176,0.205 0.425,0.309 0.675,0.309 z"
       fill="#000000" /><path
       id="path26"
       d="m 69.33,44.634 c 0.211,0 0.422,-0.073 0.593,-0.223 1.513,-1.325 3.194,-1.196 3.352,-1.185 2.452,0 6.302,0.317 6.341,0.32 0.488,0.039 0.931,-0.327 0.971,-0.823 0.042,-0.495 -0.327,-0.93 -0.822,-0.971 -0.159,-0.013 -3.906,-0.322 -6.345,-0.322 -0.018,0 -0.036,0 -0.054,0 -0.101,-0.011 -2.51,-0.23 -4.628,1.625 -0.374,0.328 -0.412,0.896 -0.084,1.27 0.177,0.205 0.426,0.309 0.676,0.309 z"
       fill="#000000" /><path
       id="path28"
       d="m 69.33,49.052 c 0.211,0 0.422,-0.073 0.593,-0.223 1.513,-1.325 3.194,-1.194 3.352,-1.185 2.452,0 6.302,0.317 6.341,0.32 0.488,0.035 0.931,-0.327 0.971,-0.823 0.042,-0.495 -0.327,-0.93 -0.822,-0.971 -0.159,-0.013 -3.906,-0.322 -6.345,-0.322 -0.018,0 -0.036,0 -0.054,0 -0.101,-0.009 -2.51,-0.23 -4.628,1.625 -0.374,0.328 -0.412,0.896 -0.084,1.27 0.177,0.205 0.426,0.309 0.676,0.309 z"
       fill="#000000" /><path
       id="path30"
       d="m 63.147,63.17 c -1.652,0 -2.997,1.345 -2.997,2.996 0,1.651 1.345,2.996 2.997,2.996 1.651,0 2.996,-1.345 2.996,-2.996 0,-1.651 -1.344,-2.996 -2.996,-2.996 z m 0,4.191 c -0.66,0 -1.196,-0.536 -1.196,-1.195 0,-0.659 0.536,-1.195 1.196,-1.195 0.659,0 1.195,0.536 1.195,1.195 0,0.659 -0.535,1.195 -1.195,1.195 z"
       fill="#000000" /><path
       id="path32"
       d="m 66.144,55.52 c 0,-0.459 -0.112,-0.889 -0.298,-1.278 -0.481,-1.011 -1.506,-1.716 -2.698,-1.716 -0.024,0 -0.048,0.007 -0.072,0.008 -1.618,0.039 -2.925,1.36 -2.925,2.986 0,1.651 1.345,2.996 2.997,2.996 1.54,0 2.799,-1.175 2.963,-2.672 0.005,0.004 0.011,0.007 0.015,0.011 -0.005,-0.004 -0.009,-0.01 -0.014,-0.015 0.011,-0.107 0.032,-0.211 0.032,-0.32 z m -2.997,1.195 c -0.66,0 -1.196,-0.536 -1.196,-1.195 0,-0.658 0.536,-1.193 1.196,-1.193 0.659,0 1.195,0.535 1.195,1.193 0.001,0.659 -0.535,1.195 -1.195,1.195 z"
       fill="#000000" /><path
       id="path34"
       d="m 57.823,58.018 c -1.651,0 -2.995,1.345 -2.995,2.996 0,1.651 1.344,2.996 2.995,2.996 1.651,0 2.996,-1.345 2.996,-2.996 0,-1.651 -1.344,-2.996 -2.996,-2.996 z m 0,4.191 c -0.659,0 -1.194,-0.536 -1.194,-1.195 0,-0.659 0.535,-1.195 1.194,-1.195 0.659,0 1.195,0.536 1.195,1.195 0,0.659 -0.536,1.195 -1.195,1.195 z"
       fill="#000000" /><path
       id="path36"
       d="m 65.475,61.014 c 0,1.651 1.344,2.996 2.995,2.996 1.651,0 2.996,-1.345 2.996,-2.996 0,-1.651 -1.345,-2.996 -2.996,-2.996 -1.651,0 -2.995,1.344 -2.995,2.996 z m 4.19,0 c 0,0.659 -0.536,1.195 -1.195,1.195 -0.659,0 -1.194,-0.536 -1.194,-1.195 0,-0.659 0.535,-1.195 1.194,-1.195 0.659,0 1.195,0.535 1.195,1.195 z"
       fill="#000000" /><path
       id="path38"
       d="m 82.14,29.254 c -0.139,-0.03 -3.439,-0.728 -7.047,-0.728 -1.148,0 -2.213,0.073 -3.163,0.215 -2.854,0.428 -4.375,1.584 -5.184,2.767 -0.809,-1.183 -2.329,-2.339 -5.183,-2.767 -0.95,-0.143 -2.05,-0.215 -3.266,-0.215 -3.81,0 -7.568,0.693 -7.727,0.723 -0.426,0.08 -0.735,0.451 -0.735,0.885 v 6.297 H 38.443 c 0.799,-4.058 0.633,-7.793 0.62,-8.057 C 39.039,27.895 38.644,27.52 38.164,27.52 H 19.626 c -0.479,0 -0.875,0.376 -0.899,0.854 -0.022,0.452 -0.502,11.13 4.239,16.116 1.593,1.675 3.588,2.524 5.93,2.524 1.699,0 3.212,-0.453 4.525,-1.338 0.588,2.806 1.648,5.724 3.551,7.725 1.593,1.675 3.588,2.524 5.93,2.524 2.342,0 4.336,-0.85 5.929,-2.524 0.401,-0.422 0.763,-0.888 1.093,-1.383 0.047,0.103 0.11,0.198 0.193,0.277 0.179,0.17 0.414,0.26 0.665,0.247 0.036,-0.002 2.124,-0.103 4.72,-0.188 -2.204,2.054 -3.594,4.972 -3.594,8.215 0,0.161 0.018,0.318 0.024,0.478 -0.631,-0.462 -1.372,-0.814 -2.233,-0.927 -3.717,-0.479 -4.748,2.597 -5.242,4.078 -0.063,0.189 -0.121,0.362 -0.177,0.507 -0.118,0.302 -0.223,0.605 -0.326,0.903 -0.615,1.776 -0.986,2.848 -3.563,2.848 -2.017,0 -2.94,-1.933 -3.648,-3.744 l -0.084,-0.216 c -1.011,-2.557 -2.302,-5.054 -5.935,-5.054 -3.287,0 -5.582,2.224 -5.582,5.407 0,0.497 0.403,0.9 0.9,0.9 0.497,0 0.9,-0.403 0.9,-0.9 0,-2.191 1.485,-3.606 3.782,-3.606 2.307,0 3.212,1.262 4.261,3.915 l 0.082,0.208 c 0.62,1.588 1.909,4.891 5.325,4.891 3.859,0 4.638,-2.251 5.264,-4.06 0.096,-0.276 0.193,-0.558 0.302,-0.838 0.066,-0.169 0.133,-0.37 0.208,-0.591 0.597,-1.788 1.22,-3.132 3.303,-2.863 2.256,0.293 3.5,3.421 3.513,3.452 0.013,0.032 0.038,0.054 0.054,0.084 1.819,3.763 5.664,6.37 10.115,6.37 6.197,0 11.24,-5.043 11.24,-11.242 0,-3.216 -1.365,-6.112 -3.537,-8.163 0.403,-0.101 0.85,-0.163 1.354,-0.163 4.354,0 9.644,0.296 9.696,0.299 0.243,0.012 0.488,-0.075 0.669,-0.244 0.18,-0.17 0.282,-0.407 0.282,-0.654 v -21.51 c -0.003,-0.424 -0.3,-0.791 -0.715,-0.88 z M 28.896,45.215 c -1.854,0 -3.367,-0.642 -4.624,-1.962 C 20.778,39.582 20.499,31.89 20.508,29.321 h 16.774 c 0.006,1.372 -0.076,4.208 -0.682,7.111 h -2.969 c -0.479,0 -0.875,0.376 -0.899,0.854 -0.011,0.227 -0.137,3.029 0.339,6.395 -1.164,1.03 -2.535,1.534 -4.175,1.534 z m 20.94,2.912 c -0.545,1.534 -1.287,2.958 -2.311,4.034 -1.257,1.322 -2.77,1.964 -4.625,1.964 -1.854,0 -3.367,-0.642 -4.624,-1.962 -1.853,-1.947 -2.797,-5.024 -3.278,-7.869 -0.151,-0.893 -0.259,-1.761 -0.331,-2.565 -0.132,-1.465 -0.157,-2.718 -0.154,-3.497 h 1.637 1.874 11.812 1.451 c 0.008,1.815 -0.134,6.187 -1.451,9.895 z m 1.801,2.575 v -2.27 c 1.705,-5.037 1.447,-10.816 1.431,-11.146 -0.023,-0.479 -0.419,-0.854 -0.898,-0.854 h -0.532 v -5.536 c 1.266,-0.199 3.982,-0.569 6.661,-0.569 1.127,0 2.136,0.065 2.998,0.195 4.106,0.616 4.55,2.914 4.55,3.874 v 15.276 c -0.866,-0.215 -1.767,-0.341 -2.698,-0.341 -1.767,0 -3.433,0.421 -4.921,1.15 -2.617,0.056 -5.237,0.162 -6.591,0.221 z m 20.95,9.868 c 0,5.206 -4.234,9.441 -9.439,9.441 -3.881,0 -7.22,-2.355 -8.669,-5.71 -0.01,-0.022 -0.02,-0.042 -0.03,-0.065 -0.478,-1.128 -0.741,-2.366 -0.741,-3.666 0,-3.578 2.001,-6.697 4.942,-8.298 1.338,-0.728 2.87,-1.142 4.498,-1.142 0.493,0 0.974,0.05 1.446,0.123 0.427,0.065 0.846,0.153 1.252,0.274 0.63,0.188 1.233,0.437 1.801,0.745 0.521,0.283 1.01,0.616 1.466,0.988 2.117,1.734 3.474,4.366 3.474,7.31 z m 8.464,-9.874 c -1.738,-0.085 -5.554,-0.252 -8.847,-0.252 -1.19,0 -2.187,0.261 -3.018,0.663 -0.489,-0.313 -1.003,-0.593 -1.54,-0.829 V 34.396 c 0,-0.959 0.443,-3.258 4.551,-3.874 0.862,-0.13 1.836,-0.195 2.896,-0.195 2.456,0 4.817,0.353 5.958,0.553 z"
       fill="#000000" /></g></svg>
