<svg height="511pt" viewBox="1 0 511.99899 511" width="511pt" xmlns="http://www.w3.org/2000/svg"><path d="m493.179688 343.234375c-2.375-3.464844-7.105469-4.347656-10.570313-1.972656s-4.347656 7.105469-1.972656 10.570312c10.566406 15.417969 16.15625 33.492188 16.15625 52.265625 0 51.035156-41.523438 92.558594-92.558594 92.558594-31.996094 0-61.296875-16.191406-78.375-43.3125-1.394531-2.210938-3.824219-3.550781-6.4375-3.550781h-30.699219c-2.613281 0-5.042968 1.339843-6.4375 3.550781-17.078125 27.121094-46.378906 43.3125-78.375 43.3125-51.035156 0-92.558594-41.523438-92.558594-92.558594 0-51.039062 41.519532-92.558594 92.558594-92.558594h200.324219c20.652344 0 40.1875 6.652344 56.496094 19.234376 3.320312 2.566406 8.097656 1.953124 10.664062-1.371094 2.566407-3.324219 1.953125-8.101563-1.371093-10.667969-18.992188-14.65625-41.742188-22.402344-65.789063-22.402344h-92.558594v-74.5625c0-9.421875 7.667969-17.089843 17.09375-17.089843 9.421875 0 17.089844 7.667968 17.089844 17.089843v16.925781c0 17.851563 14.523437 32.375 32.375 32.375 17.855469 0 32.378906-14.523437 32.378906-32.375v-78.285156c0-4.199218-3.402343-7.601562-7.605469-7.601562-4.199218 0-7.601562 3.402344-7.601562 7.601562v78.285156c0 9.464844-7.703125 17.167969-17.171875 17.167969-9.464844 0-17.167969-7.703125-17.167969-17.167969v-16.925781c0-17.808593-14.488281-32.296875-32.296875-32.296875-17.8125 0-32.300781 14.488282-32.300781 32.296875v74.5625h-9.714844v-6.546875c0-23.078125-18.777344-41.855468-41.855468-41.855468h-1.136719c-1.929688-16.890626-16.304688-30.058594-33.703125-30.058594h-28.078125v-84.578125c20.070312-12.796875 33.421875-35.242188 33.421875-60.761719 0-39.71875-32.3125-72.03125-72.03125-72.03125s-72.03125 32.3125-72.03125 72.03125c0 25.519531 13.351562 47.964844 33.421875 60.761719v24.230469c0 4.199218 3.40625 7.605468 7.605469 7.605468 4.199218 0 7.605468-3.40625 7.605468-7.605468v-16.886719c7.339844 2.53125 15.207032 3.925781 23.398438 3.925781s16.058594-1.394531 23.398437-3.921875v77.230469h-46.796875v-29.929688c0-4.199218-3.40625-7.605468-7.605468-7.605468-4.199219 0-7.605469 3.40625-7.605469 7.605468v29.929688h-28.074219c-17.402344 0-31.773438 13.167968-33.703125 30.058594h-1.140625c-23.074219 0-41.84375 18.777343-41.84375 41.855468v70.035156c0 4.199219 3.40625 7.605469 7.605469 7.605469h94.96875c-4.15625 11.449219-6.429688 23.800781-6.429688 36.671875 0 59.417969 48.34375 107.765625 107.765625 107.765625 35.835938 0 68.761719-17.4375 88.914063-46.863281h22.496093c20.152344 29.425781 53.078126 46.863281 88.914063 46.863281 59.421875 0 107.765625-48.34375 107.765625-107.765625 0-21.855468-6.507812-42.902344-18.820312-60.863281zm-406.632813-270.703125c0-31.332031 25.492187-56.824219 56.824219-56.824219 31.332031 0 56.824218 25.492188 56.824218 56.824219s-25.492187 56.824219-56.824218 56.824219c-31.332032 0-56.824219-25.492188-56.824219-56.824219zm-9.859375 160.546875h133.371094c8.996094 0 16.53125 6.378906 18.316406 14.851563h-170.007812c1.789062-8.472657 9.320312-14.851563 18.320312-14.851563zm-61.480469 119.140625v-62.433594c0-14.691406 11.949219-26.644531 26.636719-26.644531h8.421875c.035156 0 .0625.003906.09375.003906l194.539063-.003906c14.691406 0 26.644531 11.953125 26.644531 26.644531v6.546875h-67.632813c-40.625 0-76.070312 22.601563-94.429687 55.886719zm0 0"/><path d="m179.058594 465.210938h44.59375c4.199218 0 7.601562-3.40625 7.601562-7.605469v-23.609375h23.609375c4.203125 0 7.605469-3.402344 7.605469-7.601563v-44.59375c0-4.199219-3.402344-7.605469-7.605469-7.605469h-23.609375v-23.609374c0-4.199219-3.402344-7.601563-7.601562-7.601563h-44.59375c-4.199219 0-7.601563 3.402344-7.601563 7.601563v23.609374h-23.613281c-4.199219 0-7.605469 3.40625-7.605469 7.605469v44.59375c0 4.199219 3.40625 7.601563 7.605469 7.601563h23.613281v23.609375c0 4.199219 3.402344 7.605469 7.601563 7.605469zm-23.609375-46.421876v-29.382812h23.609375c4.199218 0 7.605468-3.40625 7.605468-7.605469v-23.609375h29.382813v23.609375c0 4.199219 3.40625 7.605469 7.605469 7.605469h23.609375v29.382812h-23.609375c-4.199219 0-7.605469 3.402344-7.605469 7.605469v23.609375h-29.382813v-23.609375c0-4.203125-3.40625-7.605469-7.605468-7.605469zm0 0"/><path d="m404.234375 385.324219c16.214844 0 29.40625-13.1875 29.40625-29.402344s-13.191406-29.402344-29.40625-29.402344-29.40625 13.1875-29.40625 29.402344 13.191406 29.402344 29.40625 29.402344zm0-43.597657c7.828125 0 14.195313 6.367188 14.195313 14.195313s-6.367188 14.195313-14.195313 14.195313-14.195313-6.367188-14.195313-14.195313 6.367188-14.195313 14.195313-14.195313zm0 0"/><path d="m404.234375 481.675781c16.214844 0 29.40625-13.191406 29.40625-29.402343 0-16.214844-13.191406-29.40625-29.40625-29.40625s-29.40625 13.191406-29.40625 29.40625c0 16.210937 13.191406 29.402343 29.40625 29.402343zm0-43.601562c7.828125 0 14.195313 6.371093 14.195313 14.199219 0 7.828124-6.367188 14.195312-14.195313 14.195312s-14.195313-6.367188-14.195313-14.195312c0-7.828126 6.367188-14.199219 14.195313-14.199219zm0 0"/><path d="m481.8125 404.097656c0-16.214844-13.191406-29.40625-29.402344-29.40625-16.214844 0-29.40625 13.191406-29.40625 29.40625s13.191406 29.402344 29.40625 29.402344c16.210938 0 29.402344-13.1875 29.402344-29.402344zm-43.601562 0c0-7.828125 6.371093-14.195312 14.199218-14.195312s14.195313 6.367187 14.195313 14.195312-6.367188 14.195313-14.195313 14.195313-14.199218-6.367188-14.199218-14.195313zm0 0"/><path d="m326.65625 404.097656c0 16.214844 13.1875 29.402344 29.402344 29.402344s29.40625-13.1875 29.40625-29.402344-13.191406-29.40625-29.40625-29.40625-29.402344 13.191406-29.402344 29.40625zm43.597656 0c0 7.828125-6.367187 14.195313-14.195312 14.195313s-14.195313-6.367188-14.195313-14.195313 6.367188-14.195312 14.195313-14.195312 14.195312 6.367187 14.195312 14.195312zm0 0"/><path d="m284.097656 396.492188c-4.203125 0-7.605468 3.40625-7.605468 7.605468 0 4.199219 3.402343 7.601563 7.605468 7.601563h24.8125c4.199219 0 7.605469-3.402344 7.605469-7.601563 0-4.199218-3.40625-7.605468-7.605469-7.605468zm0 0"/></svg>