<?xml version="1.0" encoding="iso-8859-1"?>
<!-- Generator: Adobe Illustrator 19.0.0, SVG Export Plug-In . SVG Version: 6.00 Build 0)  -->
<svg version="1.1" id="Capa_1" xmlns="http://www.w3.org/2000/svg" xmlns:xlink="http://www.w3.org/1999/xlink" x="0px" y="0px"
	 viewBox="0 0 512 512" style="enable-background:new 0 0 512 512;" xml:space="preserve">
<g>
	<g>
		<path d="M457,219.801c-9,0-17.493,2.187-25,6.035v-46.035H231.29c7.607-20.001,3.392-43.514-12.678-59.602
			c-10.135-10.145-10.135-26.652,0-36.797l-21.225-21.203c-21.813,21.837-21.813,57.366,0,79.203
			c10.135,10.145,10.135,26.652,0.006,36.792l-1.606,1.606H182v42.621c-8.394-2.383-17.128-3.621-26-3.621h-30
			c-47.28,0-86.598,34.719-93.812,80H0v36c0,63.411,51.589,115,115,115h287v-62.58c17.459-6.192,30-22.865,30-42.42v-21.035
			c7.507,3.849,16,6.035,25,6.035c30.327,0,55-24.673,55-55C512,244.473,487.327,219.801,457,219.801z M126,248.801h30
			c9.033,0,17.855,1.858,26,5.416v44.584H62.766C69.558,270.171,95.322,248.801,126,248.801z M212,419.801h-97
			c-46.869,0-85-38.131-85-85v-6h152v16c0,19.555,12.541,36.228,30,42.42V419.801z M372,419.801H242v-30h130V419.801z M402,344.801
			c0,8.271-6.729,15-15,15H227c-8.271,0-15-6.729-15-15v-135h190V344.801z M457,299.801c-13.785,0-25-11.215-25-25
			c0-13.785,11.215-25,25-25c13.785,0,25,11.215,25,25C482,288.587,470.785,299.801,457,299.801z"/>
	</g>
</g>
<g>
	<g>
		<path d="M152.613,120.199c-10.135-10.145-10.135-26.652,0-36.797L131.388,62.2c-21.813,21.837-21.813,57.366,0,79.203
			c10.134,10.145,10.134,26.653,0,36.797l21.225,21.203C174.426,177.566,174.426,142.037,152.613,120.199z"/>
	</g>
</g>
<g>
	<g>
		<path d="M86.613,120.199c-10.135-10.145-10.135-26.652,0-36.797L65.388,62.199c-21.813,21.837-21.813,57.366,0,79.203
			c10.134,10.145,10.134,26.653,0,36.797l21.225,21.203C108.426,177.566,108.426,142.037,86.613,120.199z"/>
	</g>
</g>
<g>
</g>
<g>
</g>
<g>
</g>
<g>
</g>
<g>
</g>
<g>
</g>
<g>
</g>
<g>
</g>
<g>
</g>
<g>
</g>
<g>
</g>
<g>
</g>
<g>
</g>
<g>
</g>
<g>
</g>
</svg>
