<?xml version="1.0"?>
<svg xmlns="http://www.w3.org/2000/svg" id="Outline" viewBox="0 0 512 512"><path d="M440.051,104.9a8,8,0,0,0,15.9,0c.571-5.049,1.352-11.964,18.42-17.257a8,8,0,0,0-4.738-15.282C459.123,75.617,452.37,79.925,448,84.611c-4.37-4.686-11.123-8.994-21.631-12.253a8,8,0,1,0-4.738,15.284C438.7,92.934,439.48,99.849,440.051,104.9Z"/><path d="M216.051,64.9a8,8,0,0,0,15.9,0c.571-5.049,1.352-11.964,18.42-17.257a8,8,0,1,0-4.738-15.282C235.124,35.617,228.37,39.925,224,44.611c-4.37-4.686-11.124-8.994-21.631-12.252a8,8,0,0,0-4.738,15.282C214.7,52.934,215.48,59.849,216.051,64.9Z"/><path d="M494.341,227.122,358.852,50.985a40,40,0,0,0-62.583-1.04l-64.825,78.717a40,40,0,0,0-64.058,6.145l-42.13,70.217-2.792-1.675a40,40,0,0,0-56.773,17.268L16.761,324.594l.007,0A7.96,7.96,0,0,0,16,328V488a8,8,0,0,0,8,8H488a8,8,0,0,0,8-8V232h0A8,8,0,0,0,494.341,227.122Zm-198.932,161.4c-47.262-28.859-96.536-48.461-140.884-56.465A1528.107,1528.107,0,0,1,310.456,277.7l-14.131,48.043A8,8,0,0,0,304,336h32v37.036A351.033,351.033,0,0,0,295.409,388.526ZM444.352,304h-49.52l22.009-71.529Zm-71.614-42.642Q382.7,259,392.6,256.832l-10.837,35.223ZM373.309,320H314.691L344,220.353ZM352,336h32a8,8,0,0,0,7.675-10.257L389.986,320H408v37.215a455.482,455.482,0,0,0-56,11.177Zm72-16h32a8,8,0,0,0,7.467-10.872l-23.709-61.642c13.524-2.388,27-4.511,40.242-6.341V352.062q-28.994.348-56,3.223Zm9.912-87.715-10.445-27.157a8,8,0,0,0-15.113.519L398,239.306c-9.831,2.081-19.8,4.316-29.78,6.682l-16.542-56.245a8,8,0,0,0-15.35,0l-18.993,64.578L241.059,142.155l24.482-29.728,15.508,13.294a23.859,23.859,0,0,0,30.019.978L328,114l16.1,12.074a24.123,24.123,0,0,0,31.371-2.229l10.875-10.876,86.894,112.963C460.269,227.782,447.106,229.918,433.912,232.285ZM308.62,60.117a24,24,0,0,1,37.55.624l30.337,39.438L364.155,112.53a8.036,8.036,0,0,1-10.457.743L332.8,97.6a8,8,0,0,0-9.6,0l-21.731,16.3a7.951,7.951,0,0,1-10.007-.326l-15.747-13.5ZM181.106,143.039a24,24,0,0,1,40.426-1.147L246.6,178.754l-18.543,15.452a8.053,8.053,0,0,1-9.559.511l-14.059-9.373a8,8,0,0,0-8.876,0L181.5,194.717a8.053,8.053,0,0,1-9.559-.511l-14.359-11.965ZM80.169,227.43a24,24,0,0,1,34.063-10.361l9.652,5.791a8,8,0,0,0,10.976-2.744l14.394-23.991L161.7,206.5a24.139,24.139,0,0,0,28.677,1.532L200,201.615l9.622,6.414A24.138,24.138,0,0,0,238.3,206.5l17.339-14.449,48.218,70.908a1560.074,1560.074,0,0,0-181.637,65.3Q117.038,328,112,328c-34.771,0-64.635,7.8-80,12.708V329.789ZM32,357.591C43.836,353.512,75.365,344,112,344c48.43,0,108.4,19.186,166.329,52.956a279.291,279.291,0,0,0-33.035,20.574C209.581,443.5,192.859,469.513,187.1,480H32ZM480,480H205.821c1.57-2.377,3.452-5.063,5.676-7.99,7.984-10.512,22.132-26.374,44.188-42.248,24.848-17.885,54.469-32.145,88.043-42.384,40.052-12.216,85.859-18.71,136.272-19.329Z"/><path d="M68,95.75a48,48,0,0,0,71.994,0,32,32,0,1,0,0-63.5A48,48,0,0,0,68,32.25a32,32,0,1,0,0,63.5ZM48,64A16.016,16.016,0,0,1,68.812,48.735a8,8,0,0,0,8.941-3.047,32.009,32.009,0,0,1,52.494,0,8,8,0,0,0,8.941,3.047,16,16,0,1,1,0,30.53,8,8,0,0,0-8.941,3.047,32.009,32.009,0,0,1-52.494,0,7.992,7.992,0,0,0-8.941-3.047A16.016,16.016,0,0,1,48,64Z"/></svg>
